<?xml version="1.0" encoding="UTF-8"?>
<!DOCTYPE svg PUBLIC "-//W3C//DTD SVG 1.1//EN" "http://www.w3.org/Graphics/SVG/1.1/DTD/svg11.dtd">
<!-- Creator: CorelDRAW X6 -->
<svg xmlns="http://www.w3.org/2000/svg" xml:space="preserve" width="667px" height="393px" version="1.1" style="shape-rendering:geometricPrecision; text-rendering:geometricPrecision; image-rendering:optimizeQuality; fill-rule:evenodd; clip-rule:evenodd"
viewBox="0 0 641 377"
 xmlns:xlink="http://www.w3.org/1999/xlink">
 <defs>
  <style type="text/css">
   <![CDATA[
    .fil0 {fill:black;fill-rule:nonzero}
   ]]>
  </style>
 </defs>
 <g id="Layer_x0020_1">
  <metadata id="CorelCorpID_0Corel-Layer"/>
  <path class="fil0" d="M607 295l0 -142 -46 -68 -124 0 0 10 0 164 0 11 -11 0 -378 0 -37 23 -11 -18 40 -25 3 -2 3 0 370 0 0 -154 0 -21 0 -11 0 -53 0 -11 11 0 25 0c15,-1 47,7 72,23 17,10 30,24 35,41l9 0 6 0 3 5 51 75 2 3 0 3 0 146 12 0 0 22 -70 0 0 -22 36 0zm-99 57c7,0 13,-3 18,-7 5,-5 7,-11 7,-18 0,-7 -3,-13 -7,-18 -5,-5 -11,-7 -18,-7 -7,0 -13,3 -18,7 -5,5 -7,11 -7,18 0,7 3,13 7,18 5,5 11,7 18,7zm33 8c-8,8 -20,14 -33,14 -13,0 -25,-5 -33,-14 -8,-8 -14,-20 -14,-33 0,-13 5,-25 14,-33 8,-8 20,-14 33,-14 13,0 25,5 33,14 8,8 14,20 14,33 0,13 -5,25 -14,33zm-371 -5c7,0 13,-3 18,-7 5,-5 7,-11 7,-18 0,-7 -3,-13 -7,-18 -5,-5 -11,-7 -18,-7 -7,0 -13,3 -18,7 -5,5 -7,11 -7,18 0,7 3,13 7,18 5,5 11,7 18,7zm33 8c-8,8 -20,14 -33,14 -13,0 -25,-5 -33,-14 -8,-8 -14,-20 -14,-33 0,-13 5,-25 14,-33 8,-8 20,-14 33,-14 13,0 25,5 33,14 8,8 14,20 14,33 0,13 -5,25 -14,33zm-137 -8c7,0 13,-3 18,-7 5,-5 7,-11 7,-18 0,-7 -3,-13 -7,-18 -5,-5 -11,-7 -18,-7 -7,0 -13,3 -18,7 -5,5 -7,11 -7,18 0,7 3,13 7,18 5,5 11,7 18,7zm33 8c-8,8 -20,14 -33,14 -13,0 -25,-5 -33,-14 -8,-8 -14,-20 -14,-33 0,-13 5,-25 14,-33 8,-8 20,-14 33,-14 13,0 25,5 33,14 8,8 14,20 14,33 0,13 -5,25 -14,33zm485 -194l-125 0 0 -22 125 0 0 22zm-414 43l74 0 0 22 -74 0 0 -22zm267 104l-188 0 0 -22 188 0 0 22zm-1 -253l98 0c-4,-9 -13,-16 -23,-23 -21,-13 -48,-20 -59,-19l0 0 -15 0 0 42z"/>
 </g>
</svg>
