<?xml version="1.0" encoding="UTF-8"?>
<!DOCTYPE svg PUBLIC "-//W3C//DTD SVG 1.1//EN" "http://www.w3.org/Graphics/SVG/1.1/DTD/svg11.dtd">
<!-- Creator: CorelDRAW X6 -->
<svg xmlns="http://www.w3.org/2000/svg" xml:space="preserve" width="897px" height="418px" version="1.1" style="shape-rendering:geometricPrecision; text-rendering:geometricPrecision; image-rendering:optimizeQuality; fill-rule:evenodd; clip-rule:evenodd"
viewBox="0 0 1174 547"
 xmlns:xlink="http://www.w3.org/1999/xlink">
 <defs>
  <style type="text/css">
   <![CDATA[
    .fil0 {fill:black;fill-rule:nonzero}
   ]]>
  </style>
 </defs>
 <g id="Layer_x0020_1">
  <metadata id="CorelCorpID_0Corel-Layer"/>
  <path class="fil0" d="M815 344l-779 0 -15 0 0 -15 0 -315 0 -15 15 0 779 0 15 0 0 15 0 315 0 15 -15 0zm-123 -101c7,0 13,-6 13,-13 0,-7 -6,-13 -13,-13 -7,0 -13,6 -13,13 0,7 6,13 13,13zm-177 0c7,0 13,-6 13,-13 0,-7 -6,-13 -13,-13 -7,0 -13,6 -13,13 0,7 6,13 13,13zm-175 0c7,0 13,-6 13,-13 0,-7 -6,-13 -13,-13 -7,0 -13,6 -13,13 0,7 6,13 13,13zm-174 0c7,0 13,-6 13,-13 0,-7 -6,-13 -13,-13 -7,0 -13,6 -13,13 0,7 6,13 13,13zm961 191l0 -178 -81 -102 -150 0 0 231 0 15 -15 0 -816 0 -50 32 -16 -25 54 -34 4 -2 4 0 805 0 0 -231 0 -15 15 0 171 0 7 0 4 6 89 111 3 4 0 5 0 184 17 0 0 29 -95 0 0 -29 49 0zm-230 29l-479 0 0 -29 479 0 0 29zm200 -163l-170 0 0 -29 170 0 0 29zm-941 215c9,0 18,-4 24,-10 6,-6 10,-15 10,-24 0,-9 -4,-18 -10,-24 -6,-6 -15,-10 -24,-10 -9,0 -18,4 -24,10 -6,6 -10,15 -10,24 0,9 4,18 10,24 6,6 15,10 24,10zm45 11c-12,12 -27,19 -45,19 -18,0 -33,-7 -45,-19 -12,-12 -19,-27 -19,-45 0,-18 7,-33 19,-45 12,-12 27,-19 45,-19 18,0 34,7 45,19 12,12 19,27 19,45 0,18 -7,34 -19,45zm96 -11c9,0 18,-4 24,-10 6,-6 10,-15 10,-24 0,-9 -4,-18 -10,-24 -6,-6 -15,-10 -24,-10 -9,0 -18,4 -24,10 -6,6 -10,15 -10,24 0,9 4,18 10,24 6,6 15,10 24,10zm45 11c-12,12 -27,19 -45,19 -18,0 -33,-7 -45,-19 -12,-12 -19,-27 -19,-45 0,-18 7,-33 19,-45 12,-12 27,-19 45,-19 18,0 34,7 45,19 12,12 19,27 19,45 0,18 -7,34 -19,45zm649 -15c9,0 18,-4 24,-10 6,-6 10,-15 10,-24 0,-9 -4,-18 -10,-24 -6,-6 -15,-10 -24,-10 -9,0 -18,4 -24,10 -6,6 -10,15 -10,24 0,9 4,18 10,24 6,6 15,10 24,10zm45 11c-12,12 -27,19 -45,19 -18,0 -33,-7 -45,-19 -12,-12 -19,-27 -19,-45 0,-18 7,-33 19,-45 12,-12 27,-19 45,-19 18,0 34,7 45,19 12,12 19,27 19,45 0,18 -7,34 -19,45zm-303 -244c-17,8 -34,12 -50,12 -17,0 -33,-4 -49,-12 -12,-6 -25,-9 -37,-9 -12,0 -24,3 -37,9 -17,8 -34,12 -50,12 -17,0 -33,-4 -49,-12 -12,-6 -25,-9 -37,-9 -12,0 -24,3 -37,9 -17,8 -34,12 -50,12 -17,0 -33,-4 -49,-12 -12,-6 -25,-9 -37,-9 -12,0 -24,3 -37,9 -17,8 -34,12 -50,12 -17,0 -33,-4 -49,-12 -12,-6 -25,-9 -37,-9 -9,0 -19,2 -29,5l0 38 750 0 0 -38c-9,-4 -19,-5 -28,-6 -12,0 -24,3 -37,9l0 0zm-684 -35c10,-3 19,-4 29,-4 17,0 33,4 49,12 12,6 25,9 37,9 12,0 24,-3 37,-9 17,-8 34,-12 50,-12 17,0 33,4 49,12 12,6 25,9 37,9 12,0 24,-3 37,-9 17,-8 34,-12 50,-12 17,0 33,4 49,12 12,6 25,9 37,9 12,0 24,-3 37,-9 17,-8 34,-12 50,-12 17,0 33,4 49,12 12,6 25,9 37,9 12,0 24,-3 37,-9l0 0c17,-8 34,-12 50,-12 9,0 19,1 28,4l0 -216 -750 0 0 216z"/>
 </g>
</svg>
