<?xml version="1.0" encoding="UTF-8"?>
<!DOCTYPE svg PUBLIC "-//W3C//DTD SVG 1.1//EN" "http://www.w3.org/Graphics/SVG/1.1/DTD/svg11.dtd">
<!-- Creator: CorelDRAW X6 -->
<svg xmlns="http://www.w3.org/2000/svg" xml:space="preserve" width="802px" height="428px" version="1.1" style="shape-rendering:geometricPrecision; text-rendering:geometricPrecision; image-rendering:optimizeQuality; fill-rule:evenodd; clip-rule:evenodd"
viewBox="0 0 896 479"
 xmlns:xlink="http://www.w3.org/1999/xlink">
 <defs>
  <style type="text/css">
   <![CDATA[
    .fil0 {fill:black;fill-rule:nonzero}
   ]]>
  </style>
 </defs>
 <g id="Layer_x0020_1">
  <metadata id="CorelCorpID_0Corel-Layer"/>
  <path class="fil0" d="M857 383l0 -152 -70 -87 -128 0 0 198 0 13 -13 0 -590 0 -43 27 -13 -21 46 -29 3 -2 4 0 581 0 0 -198 0 -13 13 0 146 0 6 0 4 5 76 95 3 3 0 4 0 157 14 0 0 25 -81 0 0 -25 42 0zm-362 -77l-403 0 -6 0 -4 -5 -80 -100 -3 -3 0 -4 0 -107 0 -13 13 0 443 -1 93 -70 3 -3 4 0 182 0 12 0 0 13 0 32 0 9 -9 3 -133 39 -101 203 -3 7 -8 0zm-397 -25l389 0 100 -201 2 -5 5 -2 129 -38 0 -10 -165 0 -92 70 -3 3 -4 0 -435 1 0 90 73 92zm644 170c8,0 15,-3 21,-9 5,-5 9,-13 9,-21 0,-8 -3,-15 -9,-21 -5,-5 -13,-9 -21,-9 -8,0 -15,3 -21,9 -5,5 -9,13 -9,21 0,8 3,15 9,21 5,5 13,9 21,9zm38 9c-10,10 -23,16 -38,16 -15,0 -29,-6 -38,-16 -10,-10 -16,-23 -16,-38 0,-15 6,-29 16,-38 10,-10 23,-16 38,-16 15,0 29,6 38,16 10,10 16,23 16,38 0,15 -6,29 -16,38zm-526 -6c8,0 15,-3 21,-9 5,-5 9,-13 9,-21 0,-8 -3,-15 -9,-21 -5,-5 -13,-9 -21,-9 -8,0 -15,3 -21,9 -5,5 -9,13 -9,21 0,8 3,15 9,21 5,5 13,9 21,9zm38 9c-10,10 -23,16 -38,16 -15,0 -29,-6 -38,-16 -10,-10 -16,-23 -16,-38 0,-15 6,-29 16,-38 10,-10 23,-16 38,-16 15,0 29,6 38,16 10,10 16,23 16,38 0,15 -6,29 -16,38zm-159 -9c8,0 15,-3 21,-9 5,-5 9,-13 9,-21 0,-8 -3,-15 -9,-21 -5,-5 -13,-9 -21,-9 -8,0 -15,3 -21,9 -5,5 -9,13 -9,21 0,8 3,15 9,21 5,5 13,9 21,9zm38 9c-10,10 -23,16 -38,16 -15,0 -29,-6 -38,-16 -10,-10 -16,-23 -16,-38 0,-15 6,-29 16,-38 10,-10 23,-16 38,-16 15,0 29,6 38,16 10,10 16,23 16,38 0,15 -6,29 -16,38zm433 -248l0 89 -25 0 0 -89 25 0zm227 55l-145 0 0 -25 145 0 0 25zm-708 -142l-47 74 -17 -21 34 -54 30 0zm324 0l-79 125 -30 0 79 -125 30 0zm-107 0l-79 125 -30 0 79 -125 30 0zm-108 0l-79 125 -30 0 79 -125 30 0zm428 281l-317 0 0 -25 317 0 0 25z"/>
 </g>
</svg>
