<?xml version="1.0" encoding="UTF-8"?>
<!DOCTYPE svg PUBLIC "-//W3C//DTD SVG 1.1//EN" "http://www.w3.org/Graphics/SVG/1.1/DTD/svg11.dtd">
<!-- Creator: CorelDRAW X6 -->
<svg xmlns="http://www.w3.org/2000/svg" xml:space="preserve" width="897px" height="418px" version="1.1" style="shape-rendering:geometricPrecision; text-rendering:geometricPrecision; image-rendering:optimizeQuality; fill-rule:evenodd; clip-rule:evenodd"
viewBox="0 0 938 437"
 xmlns:xlink="http://www.w3.org/1999/xlink">
 <defs>
  <style type="text/css">
   <![CDATA[
    .fil0 {fill:black;fill-rule:nonzero}
   ]]>
  </style>
 </defs>
 <g id="Layer_x0020_1">
  <metadata id="CorelCorpID_0Corel-Layer"/>
  <path class="fil0" d="M651 275l-596 0 -12 0 0 -12 0 -251 0 -12 12 0 596 0 12 0 0 12 0 251 0 12 -12 0zm250 72l0 -143 -65 -81 -120 0 0 185 0 12 -12 0 -652 0 -40 25 -12 -20 43 -27 3 -2 3 0 643 0 0 -185 0 -12 12 0 137 0 6 0 4 4 71 89 3 3 0 4 0 147 13 0 0 24 -76 0 0 -24 39 0zm-184 24l-383 0 0 -24 383 0 0 24zm160 -130l-136 0 0 -24 136 0 0 24zm-321 -170l0 149 -24 0 0 -149 -36 0 0 149 -24 0 0 -149 -36 0 0 149 -24 0 0 -149 -36 0 0 149 -24 0 0 -149 -36 0 0 149 -24 0 0 -149 -36 0 0 149 -24 0 0 -149 -36 0 0 149 -24 0 0 -149 -36 0 0 149 -24 0 0 -149 -22 0 0 -24 517 0 0 3 0 0 0 174 -24 0 0 -154 -31 0zm-430 342c8,0 14,-3 19,-8 5,-5 8,-12 8,-19 0,-8 -3,-14 -8,-19l0 0c-5,-5 -12,-8 -19,-8 -8,0 -14,3 -19,8 -5,5 -8,12 -8,19 0,8 3,14 8,19l0 0c5,5 12,8 19,8zm36 9c-9,9 -22,15 -36,15 -14,0 -27,-6 -36,-15l0 0c-9,-9 -15,-22 -15,-36 0,-14 6,-27 15,-36 9,-9 22,-15 36,-15 14,0 27,6 36,15l0 0c9,9 15,22 15,36 0,14 -6,27 -15,36zm77 -9c8,0 14,-3 19,-8 5,-5 8,-12 8,-19 0,-8 -3,-14 -8,-19l0 0c-5,-5 -12,-8 -19,-8 -8,0 -14,3 -19,8l0 0c-5,5 -8,12 -8,19 0,8 3,14 8,19 5,5 12,8 19,8zm36 9c-9,9 -22,15 -36,15 -14,0 -27,-6 -36,-15 -9,-9 -15,-22 -15,-36 0,-14 6,-27 15,-36l0 0c9,-9 22,-15 36,-15 14,0 27,6 36,15l0 0c9,9 15,22 15,36 0,14 -6,27 -15,36zm519 -12c8,0 14,-3 19,-8 5,-5 8,-12 8,-19 0,-8 -3,-14 -8,-19 -5,-5 -12,-8 -19,-8 -8,0 -14,3 -19,8l0 0c-5,5 -8,12 -8,19 0,8 3,14 8,19 5,5 12,8 19,8zm36 9c-9,9 -22,15 -36,15 -14,0 -27,-6 -36,-15 -9,-9 -15,-22 -15,-36 0,-14 6,-27 15,-36l0 0c9,-9 22,-15 36,-15 14,0 27,6 36,15 9,9 15,22 15,36 0,14 -6,27 -15,36zm-762 -167l573 0 0 -228 -573 0 0 228z"/>
 </g>
</svg>
