<?xml version="1.0" encoding="UTF-8"?>
<!DOCTYPE svg PUBLIC "-//W3C//DTD SVG 1.1//EN" "http://www.w3.org/Graphics/SVG/1.1/DTD/svg11.dtd">
<!-- Creator: CorelDRAW X6 -->
<svg xmlns="http://www.w3.org/2000/svg" xml:space="preserve" width="819px" height="505px" version="1.1" style="shape-rendering:geometricPrecision; text-rendering:geometricPrecision; image-rendering:optimizeQuality; fill-rule:evenodd; clip-rule:evenodd"
viewBox="0 0 1031 636"
 xmlns:xlink="http://www.w3.org/1999/xlink">
 <defs>
  <style type="text/css">
   <![CDATA[
    .fil0 {fill:black;fill-rule:nonzero}
   ]]>
  </style>
 </defs>
 <g id="Layer_x0020_1">
  <metadata id="CorelCorpID_0Corel-Layer"/>
  <path class="fil0" d="M167 543c16,-8 32,-12 48,-12 16,0 32,4 47,11 12,6 24,9 35,9 12,0 24,-3 36,-9 16,-8 32,-12 48,-12 16,0 32,4 47,11 12,6 24,9 35,9 12,0 24,-3 36,-9l6 13 -6 -13c16,-8 32,-12 48,-12 16,0 32,4 47,11 12,6 24,9 35,9 12,0 24,-3 36,-9 16,-8 32,-12 48,-12 16,0 32,4 47,11 12,6 24,9 35,9 12,0 24,-3 36,-9l13 25c-16,8 -32,12 -48,12 -16,0 -32,-4 -47,-11 -12,-6 -24,-9 -35,-9 -12,0 -24,3 -36,9 -16,8 -32,12 -48,12 -16,0 -32,-4 -47,-11 -12,-6 -24,-9 -35,-9 -12,0 -24,3 -36,9l0 0c-16,8 -32,12 -48,12 -16,0 -32,-4 -47,-11 -12,-6 -24,-9 -35,-9 -12,0 -24,3 -36,9 -16,8 -32,12 -48,12 -16,0 -32,-4 -47,-11 -12,-6 -24,-9 -35,-9 -12,0 -24,3 -36,9 -16,8 -32,12 -48,12 -16,0 -32,-4 -47,-11 -12,-6 -24,-9 -35,-9 -12,0 -23,3 -36,9l-13 -25c16,-8 32,-12 48,-12 16,0 32,4 47,11 12,6 24,9 35,9 12,0 24,-3 36,-9zm701 -441c-19,-9 -36,-5 -53,1 -20,6 -42,12 -71,5l-11 -3 0 -11 0 -65 0 -16 16 1c20,2 38,-3 54,-7 30,-8 56,-15 88,11l5 4 0 7 0 39 0 25 0 26 0 110 121 0 13 0 1 13c4,83 -38,121 -80,160 -31,28 -62,57 -73,105l-29 0c11,-61 47,-94 83,-126 35,-32 70,-64 71,-124l-1001 0 0 -28 450 0 0 -48 -450 0 0 -28 464 0 14 0 0 14 0 62 387 0 0 -127zm-61 -26c20,-6 39,-11 61,-4l0 -3 0 -32c-19,-12 -37,-7 -57,-2 -15,4 -31,8 -49,9l0 38c17,2 31,-2 45,-7zm-75 266l-38 0 0 -28 38 0 0 28zm-156 0l-38 0 0 -28 38 0 0 28zm-156 0l-38 0 0 -28 38 0 0 28zm-156 0l-38 0 0 -28 38 0 0 28zm-37 -201l0 -19 -224 0 0 -28 238 0 14 0 0 14 0 33 -28 0zm619 485c-16,8 -32,12 -48,12 -16,0 -32,-4 -47,-11 -12,-6 -24,-9 -35,-9 -12,0 -24,3 -36,9l-6 -13 6 13c-16,8 -32,12 -48,12 -16,0 -32,-4 -47,-11 -12,-6 -24,-9 -35,-9 -12,0 -23,3 -36,9 -16,8 -32,12 -48,12 -16,0 -32,-4 -47,-11 -12,-6 -24,-9 -35,-9 -12,0 -24,3 -36,9l-6 -13 6 13c-16,8 -32,12 -48,12 -16,0 -32,-4 -47,-11l6 -12 -6 12c-12,-6 -24,-9 -36,-9 -12,0 -24,3 -35,9 -15,7 -31,11 -47,11 -16,0 -32,-4 -48,-12l13 -25c12,6 24,9 36,9 12,0 24,-3 35,-9 15,-7 31,-11 47,-11 16,0 32,4 48,12l0 0c12,6 23,9 35,9 12,0 23,-3 36,-9l0 0c16,-8 32,-12 48,-12 16,0 32,4 47,11 12,6 24,9 35,9 12,0 23,-3 36,-9 16,-8 32,-12 48,-12 16,0 32,4 47,11 12,6 24,9 35,9 12,0 23,-3 36,-9l0 0c16,-8 32,-12 48,-12 16,0 32,4 47,11 12,6 24,9 35,9 12,0 23,-3 36,-9l0 0c16,-8 32,-12 48,-12 16,0 32,4 47,11l-12 26c-12,-6 -24,-9 -35,-9 -12,0 -24,3 -36,9l-11 -23 11 23z"/>
 </g>
</svg>
