<?xml version="1.0" encoding="UTF-8"?>
<!DOCTYPE svg PUBLIC "-//W3C//DTD SVG 1.1//EN" "http://www.w3.org/Graphics/SVG/1.1/DTD/svg11.dtd">
<!-- Creator: CorelDRAW X6 -->
<svg xmlns="http://www.w3.org/2000/svg" xml:space="preserve" width="897px" height="418px" version="1.1" style="shape-rendering:geometricPrecision; text-rendering:geometricPrecision; image-rendering:optimizeQuality; fill-rule:evenodd; clip-rule:evenodd"
viewBox="0 0 1256 585"
 xmlns:xlink="http://www.w3.org/1999/xlink">
 <defs>
  <style type="text/css">
   <![CDATA[
    .fil0 {fill:black;fill-rule:nonzero}
   ]]>
  </style>
 </defs>
 <g id="Layer_x0020_1">
  <metadata id="CorelCorpID_0Corel-Layer"/>
  <polygon class="fil0" points="1207,477 1207,274 1119,165 959,166 959,413 959,429 944,429 71,429 17,463 0,436 58,400 62,397 66,397 928,397 928,150 928,134 944,134 1127,134 1134,134 1139,140 1235,259 1238,264 1238,269 1238,477 "/>
  <polygon class="fil0" points="961,497 449,497 449,465 961,465 "/>
  <polygon class="fil0" points="1256,497 1155,497 1155,465 1256,465 "/>
  <polygon class="fil0" points="1175,323 994,323 994,291 1175,291 "/>
  <path class="fil0" d="M169 553c10,0 19,-4 26,-11 7,-7 11,-16 11,-26 0,-10 -4,-19 -11,-26 -7,-7 -16,-11 -26,-11 -10,0 -19,4 -26,11 -7,7 -11,16 -11,26 0,10 4,19 11,26 7,7 16,11 26,11zm48 12c-12,12 -29,20 -48,20 -19,0 -36,-8 -48,-20 -12,-12 -20,-29 -20,-48 0,-19 8,-36 20,-48 12,-12 29,-20 48,-20 19,0 36,8 48,20 12,12 20,29 20,48 0,19 -8,36 -20,48z"/>
  <path class="fil0" d="M320 553c10,0 19,-4 26,-11 7,-7 11,-16 11,-26 0,-10 -4,-19 -11,-26 -7,-7 -16,-11 -26,-11 -10,0 -19,4 -26,11 -7,7 -11,16 -11,26 0,10 4,19 11,26 7,7 16,11 26,11zm48 12c-12,12 -29,20 -48,20 -19,0 -36,-8 -48,-20 -12,-12 -20,-29 -20,-48 0,-19 8,-36 20,-48 12,-12 29,-20 48,-20 19,0 36,8 48,20 12,12 20,29 20,48 0,19 -8,36 -20,48z"/>
  <path class="fil0" d="M1063 549c10,0 19,-4 26,-11 7,-7 11,-16 11,-26 0,-10 -4,-19 -11,-26 -7,-7 -16,-11 -26,-11 -10,0 -19,4 -26,11 -7,7 -11,16 -11,26 0,10 4,19 11,26 7,7 16,11 26,11zm48 12c-12,12 -29,20 -48,20 -19,0 -36,-8 -48,-20 -12,-12 -20,-29 -20,-48 0,-19 8,-36 20,-48 12,-12 29,-20 48,-20 19,0 36,8 48,20 12,12 20,29 20,48 0,19 -8,36 -20,48z"/>
  <path class="fil0" d="M872 368l-834 0 -16 0 0 -16 0 -337 0 -16 16 0 834 0 16 0 0 16 0 337 0 16 -16 0zm-818 -32l802 0 0 -305 -802 0 0 305z"/>
 </g>
</svg>
