<?xml version="1.0" encoding="UTF-8"?>
<!DOCTYPE svg PUBLIC "-//W3C//DTD SVG 1.1//EN" "http://www.w3.org/Graphics/SVG/1.1/DTD/svg11.dtd">
<!-- Creator: CorelDRAW X6 -->
<svg xmlns="http://www.w3.org/2000/svg" xml:space="preserve" width="545px" height="271px" version="1.1" style="shape-rendering:geometricPrecision; text-rendering:geometricPrecision; image-rendering:optimizeQuality; fill-rule:evenodd; clip-rule:evenodd"
viewBox="0 0 551 274"
 xmlns:xlink="http://www.w3.org/1999/xlink">
 <defs>
  <style type="text/css">
   <![CDATA[
    .fil0 {fill:black;fill-rule:nonzero}
   ]]>
  </style>
 </defs>
 <g id="Layer_x0020_1">
  <metadata id="CorelCorpID_0Corel-Layer"/>
  <path class="fil0" d="M452 250c6,0 11,-2 14,-6l0 0c4,-4 6,-9 6,-14 0,-6 -2,-11 -6,-14l0 0c-4,-4 -9,-6 -14,-6 -6,0 -11,2 -14,6l0 0c-4,4 -6,9 -6,14 0,6 2,11 6,14l0 0c4,4 9,6 14,6zm-320 1c6,0 11,-2 14,-6l0 0c4,-4 6,-9 6,-14 0,-6 -2,-11 -6,-14l0 0c-4,-4 -9,-6 -14,-6 -6,0 -11,2 -14,6l0 0c-4,4 -6,9 -6,14 0,6 2,11 6,14 4,4 9,6 14,6zm30 10l0 0c-8,8 -19,13 -31,13 -12,0 -23,-5 -31,-13 -7,-7 -11,-15 -12,-25l-90 0 0 -23 93 0c2,-5 5,-10 9,-13l0 0c8,-8 19,-13 30,-13 12,0 23,5 30,13l0 0c4,4 7,8 9,13l240 0c2,-6 5,-11 10,-15l0 0c8,-8 19,-13 30,-13 12,0 23,5 30,13l0 0 0 0c4,4 7,9 10,15l59 0 0 23 -56 0c-1,9 -6,17 -12,24l0 0c-8,8 -19,13 -30,13 -12,0 -23,-5 -30,-13l0 0c-6,-6 -11,-14 -12,-24l-234 0c-1,10 -6,18 -12,25zm-157 -66l0 -184 0 -11 11 0 353 0 1 0c41,2 55,19 94,67 7,9 15,19 28,34l39 47 0 0 1 1c8,10 14,17 14,35l0 0 0 13 -23 0 0 -13 0 0c0,-10 -3,-14 -8,-20l0 0 -1 -1 0 0 -39 -47c-9,-11 -19,-24 -28,-34 -34,-42 -45,-57 -76,-59l0 0 -342 0 0 172 -23 0zm453 -64l-119 0 0 -23 119 0 0 23z"/>
 </g>
</svg>
