<?xml version="1.0" encoding="UTF-8"?>
<!DOCTYPE svg PUBLIC "-//W3C//DTD SVG 1.1//EN" "http://www.w3.org/Graphics/SVG/1.1/DTD/svg11.dtd">
<!-- Creator: CorelDRAW X6 -->
<svg xmlns="http://www.w3.org/2000/svg" xml:space="preserve" width="897px" height="322px" version="1.1" style="shape-rendering:geometricPrecision; text-rendering:geometricPrecision; image-rendering:optimizeQuality; fill-rule:evenodd; clip-rule:evenodd"
viewBox="0 0 891 320"
 xmlns:xlink="http://www.w3.org/1999/xlink">
 <defs>
  <style type="text/css">
   <![CDATA[
    .fil0 {fill:black;fill-rule:nonzero}
   ]]>
  </style>
 </defs>
 <g id="Layer_x0020_1">
  <metadata id="CorelCorpID_0Corel-Layer"/>
  <path class="fil0" d="M856 235l0 -135 -62 -77 -114 0 0 176 0 11 -11 0 -619 0 -38 24 -12 -19 41 -26 3 -2 3 0 611 0 0 -176 0 -11 11 0 130 0 5 0 3 4 68 85 2 3 0 4 0 139 13 0 0 22 -72 0 0 -22 37 0zm-237 -69l-595 0 -11 0 0 -11 0 -97 0 -11 11 0 595 0 11 0 0 11 0 97 0 11 -11 0zm-584 -22l573 0 0 -75 -573 0 0 75zm719 151c7,0 14,-3 18,-8 5,-5 8,-11 8,-18 0,-7 -3,-14 -8,-18 -5,-5 -11,-8 -18,-8 -7,0 -14,3 -18,8 -5,5 -8,11 -8,18 0,7 3,14 8,18 5,5 11,8 18,8zm34 8c-9,9 -21,14 -34,14 -13,0 -25,-5 -34,-14 -9,-9 -14,-21 -14,-34 0,-13 5,-25 14,-34 9,-9 21,-14 34,-14 13,0 25,5 34,14 9,9 14,21 14,34 0,13 -5,25 -14,34zm-561 -5c7,0 14,-3 18,-8 5,-5 8,-11 8,-18 0,-7 -3,-14 -8,-18 -5,-5 -11,-8 -18,-8 -7,0 -14,3 -18,8 -5,5 -8,11 -8,18 0,7 3,14 8,18 5,5 11,8 18,8zm34 8c-9,9 -21,14 -34,14 -13,0 -25,-5 -34,-14 -9,-9 -14,-21 -14,-34 0,-13 5,-25 14,-34 9,-9 21,-14 34,-14 13,0 25,5 34,14 9,9 14,21 14,34 0,13 -5,25 -14,34zm-141 -8c7,0 14,-3 18,-8 5,-5 8,-11 8,-18 0,-7 -3,-14 -8,-18 -5,-5 -11,-8 -18,-8 -7,0 -14,3 -18,8 -5,5 -8,11 -8,18 0,7 3,14 8,18 5,5 11,8 18,8zm34 8c-9,9 -21,14 -34,14 -13,0 -25,-5 -34,-14 -9,-9 -14,-21 -14,-34 0,-13 5,-25 14,-34 9,-9 21,-14 34,-14 13,0 25,5 34,14 9,9 14,21 14,34 0,13 -5,25 -14,34zm680 -172l-129 0 0 -22 129 0 0 22zm-152 123l-363 0 0 -22 363 0 0 22z"/>
 </g>
</svg>
