<?xml version="1.0" encoding="UTF-8"?>
<!DOCTYPE svg PUBLIC "-//W3C//DTD SVG 1.1//EN" "http://www.w3.org/Graphics/SVG/1.1/DTD/svg11.dtd">
<!-- Creator: CorelDRAW X6 -->
<svg xmlns="http://www.w3.org/2000/svg" xml:space="preserve" width="1155px" height="454px" version="1.1" style="shape-rendering:geometricPrecision; text-rendering:geometricPrecision; image-rendering:optimizeQuality; fill-rule:evenodd; clip-rule:evenodd"
viewBox="0 0 1190 467"
 xmlns:xlink="http://www.w3.org/1999/xlink">
 <defs>
  <style type="text/css">
   <![CDATA[
    .fil0 {fill:black;fill-rule:nonzero}
   ]]>
  </style>
 </defs>
 <g id="Layer_x0020_1">
  <metadata id="CorelCorpID_0Corel-Layer"/>
  <path class="fil0" d="M927 166l-846 0 0 -23 846 0 0 23zm4 -50l-33 0c-1,9 -8,16 -17,16 -9,0 -16,-7 -17,-16l-109 0c-1,9 -8,16 -17,16 -9,0 -17,-7 -17,-16l-37 0 -12 0 0 -12 0 -36c0,-6 2,-11 6,-14 4,-4 9,-6 15,-6l39 0 18 -32 1 -2 0 0c4,-7 7,-13 18,-13l82 0c11,0 15,6 18,13l0 0 1 2 18 32 37 0c6,0 11,2 15,6 4,4 6,9 6,14l0 36 0 12 -12 0zm-237 -23l226 0 0 -22 -41 0 -7 0 -3 -6 -21 -39 0 0 -1 -2 0 0c0,0 0,0 1,0l1 -1 -80 0 1 1c0,0 1,0 1,0l0 0 -1 2 0 0 -21 39 -3 6 -7 0 -43 0 0 22zm73 -70l1 0 0 0 -1 -1 0 0zm1 0l-1 0 -1 0c-2,0 0,0 2,0zm80 0l-1 0 -1 0c1,0 4,0 2,0zm-1 0l0 0 -1 1 0 0 1 0zm-218 93l-33 0c-1,9 -8,16 -17,16 -9,0 -16,-7 -17,-16l-109 0c-1,9 -8,16 -17,16 -9,0 -17,-7 -17,-16l-37 0 -12 0 0 -12 0 -36c0,-6 2,-11 6,-14 4,-4 9,-6 15,-6l39 0 18 -32 1 -2 0 0c4,-7 7,-13 18,-13l82 0c11,0 15,6 18,13l0 0 1 2 18 32 37 0c6,0 11,2 15,6 4,4 6,9 6,14l0 36 0 12 -12 0zm-237 -23l226 0 0 -22 -41 0 -7 0 -3 -6 -21 -39 0 0 -1 -2 0 0c0,0 0,0 1,0l1 -1 -80 0 1 1c0,0 1,0 1,0l0 0 -1 2 0 0 -21 39 -3 6 -7 0 -43 0 0 22zm73 -70l1 0 0 0 -1 -1 0 0zm1 0l-1 0 -1 0c-2,0 0,0 2,0zm80 0l-1 0 -1 0c1,0 4,0 2,0zm-1 0l0 0 -1 1 0 0 1 0zm-204 93l-33 0c-1,9 -8,16 -17,16 -9,0 -16,-7 -17,-16l-109 0c-1,9 -8,16 -17,16 -9,0 -17,-7 -17,-16l-37 0 -12 0 0 -12 0 -36c0,-6 2,-11 6,-14 4,-4 9,-6 15,-6l39 0 18 -32 1 -2 0 0c4,-7 7,-13 18,-13l82 0c11,0 15,6 18,13l0 0 1 2 18 32 37 0c6,0 11,2 15,6 4,4 6,9 6,14l0 36 0 12 -12 0zm-237 -23l226 0 0 -22 -41 0 -7 0 -3 -6 -21 -39 0 0 -1 -2 0 0c0,0 0,0 1,0l1 -1 -80 0 1 1c0,0 1,0 1,0l0 0 -1 2 0 0 -21 39 -3 6 -7 0 -43 0 0 22zm73 -70l1 0 0 0 -1 -1 0 0zm1 0l-1 0 -1 0c-2,0 0,0 2,0zm80 0l-1 0 -1 0c1,0 4,0 2,0zm-1 0l0 0 -1 1 0 0 1 0zm85 277l-33 0c-1,9 -8,16 -17,16 -9,0 -16,-7 -17,-16l-109 0c-1,9 -8,16 -17,16 -9,0 -17,-7 -17,-16l-37 0 -12 0 0 -12 0 -36c0,-6 2,-11 6,-14 4,-4 9,-6 15,-6l39 0 18 -32 1 -2 0 0c4,-7 7,-13 18,-13l82 0c11,0 15,6 18,13l0 0 1 2 18 32 37 0c6,0 11,2 15,6 4,4 6,9 6,14l0 36 0 12 -12 0zm-237 -23l226 0 0 -22 -41 0 -7 0 -3 -6 -21 -39 0 0 -1 -2 0 0c0,0 0,0 1,0l1 -1 -80 0 1 1c0,0 1,0 1,0l0 0 -1 2 0 0 -21 39 -3 6 -7 0 -43 0 0 22zm73 -70l1 0 0 0 -1 -1 0 0zm1 0l-1 0 -1 0c-2,0 0,0 2,0zm80 0l-1 0 -1 0c1,0 4,0 2,0zm-1 0l0 0 -1 1 0 0 1 0zm369 93l-33 0c-1,9 -8,16 -17,16 -9,0 -16,-7 -17,-16l-109 0c-1,9 -8,16 -17,16 -9,0 -17,-7 -17,-16l-37 0 -12 0 0 -12 0 -36c0,-6 2,-11 6,-14 4,-4 9,-6 15,-6l39 0 18 -32 1 -2 0 0c4,-7 7,-13 18,-13l82 0c11,0 15,6 18,13l0 0 1 2 18 32 37 0c6,0 11,2 15,6 4,4 6,9 6,14l0 36 0 12 -12 0zm-237 -23l226 0 0 -22 -41 0 -7 0 -3 -6 -21 -39 0 0 -1 -2 0 0c0,0 0,0 1,0l1 -1 -80 0 1 1c0,0 1,0 1,0l0 0 -1 2 0 0 -21 39 -3 6 -7 0 -43 0 0 22zm73 -70l1 0 0 0 -1 -1 0 0zm1 0l-1 0 -1 0c-2,0 0,0 2,0zm80 0l-1 0 -1 0c1,0 4,0 2,0zm-1 0l0 0 -1 1 0 0 1 0zm369 93l-33 0c-1,9 -8,16 -17,16 -9,0 -16,-7 -17,-16l-109 0c-1,9 -8,16 -17,16 -9,0 -17,-7 -17,-16l-37 0 -12 0 0 -12 0 -36c0,-6 2,-11 6,-14 4,-4 9,-6 15,-6l39 0 18 -32 1 -2 0 0c4,-7 7,-13 18,-13l82 0c11,0 15,6 18,13l0 0 1 2 18 32 37 0c6,0 11,2 15,6 4,4 6,9 6,14l0 36 0 12 -12 0zm-237 -23l226 0 0 -22 -41 0 -7 0 -3 -6 -21 -39 0 0 -1 -2 0 0c0,0 0,0 1,0l1 -1 -80 0 1 1c0,0 1,0 1,0l0 0 -1 2 0 0 -21 39 -3 6 -7 0 -43 0 0 22zm73 -70l1 0 0 0 -1 -1 0 0zm1 0l-1 0 -1 0c-2,0 0,0 2,0zm80 0l-1 0 -1 0c1,0 4,0 2,0zm-1 0l0 0 -1 1 0 0 1 0zm-561 237c6,0 12,-3 16,-7 4,-4 7,-10 7,-16 0,-6 -3,-12 -7,-16 -4,-4 -10,-7 -16,-7 -6,0 -12,3 -16,7 -4,4 -7,10 -7,16 0,6 3,12 7,16 4,4 10,7 16,7zm32 10c-8,8 -20,13 -32,13 -13,0 -24,-5 -32,-13 -8,-8 -13,-20 -13,-32 0,-5 1,-10 2,-14l-116 0 0 -23 133 0c7,-5 16,-8 26,-8 13,0 24,5 32,13 8,8 13,20 13,32 0,13 -5,24 -13,32zm86 -10c6,0 12,-3 16,-7 4,-4 7,-10 7,-16 0,-6 -3,-12 -7,-16 -4,-4 -10,-7 -16,-7 -6,0 -12,3 -16,7 -4,4 -7,10 -7,16 0,6 3,12 7,16 4,4 10,7 16,7zm32 10c-8,8 -20,13 -32,13 -13,0 -24,-5 -32,-13 -8,-8 -13,-20 -13,-32 0,-13 5,-24 13,-32 8,-8 20,-13 32,-13 13,0 24,5 32,13 8,8 13,20 13,32 0,13 -5,24 -13,32zm623 -10c6,0 12,-3 16,-7 4,-4 7,-10 7,-16 0,-6 -3,-12 -7,-16 -4,-4 -10,-7 -16,-7 -6,0 -12,3 -16,7 -4,4 -7,10 -7,16 0,6 3,12 7,16 4,4 10,7 16,7zm32 10c-8,8 -20,13 -32,13 -13,0 -24,-5 -32,-13 -8,-8 -13,-20 -13,-32 0,-13 5,-24 13,-32 8,-8 20,-13 32,-13 13,0 24,5 32,13 8,8 13,20 13,32 0,13 -5,24 -13,32zm113 -46l-79 0 0 -23 43 0 0 -141 -64 -80 -118 0 0 182 0 12 -12 0 -843 0 -105 68 -13 -19 108 -70 3 -2 3 0 834 0 0 -182 0 -12 12 0 135 0 6 0 3 4 70 88 3 3 0 4 0 145 13 0 0 23zm-227 1l-527 0 0 -23 527 0 0 23zm167 -129l-134 0 0 -23 134 0 0 23z"/>
 </g>
</svg>
