<?xml version="1.0" encoding="UTF-8"?>
<!DOCTYPE svg PUBLIC "-//W3C//DTD SVG 1.1//EN" "http://www.w3.org/Graphics/SVG/1.1/DTD/svg11.dtd">
<!-- Creator: CorelDRAW X6 -->
<svg xmlns="http://www.w3.org/2000/svg" xml:space="preserve" width="418px" height="559px" version="1.1" style="shape-rendering:geometricPrecision; text-rendering:geometricPrecision; image-rendering:optimizeQuality; fill-rule:evenodd; clip-rule:evenodd"
viewBox="0 0 423 565"
 xmlns:xlink="http://www.w3.org/1999/xlink">
 <defs>
  <style type="text/css">
   <![CDATA[
    .fil0 {fill:black;fill-rule:nonzero}
   ]]>
  </style>
 </defs>
 <g id="Layer_x0020_1">
  <metadata id="CorelCorpID_0Corel-Layer"/>
  <path class="fil0" d="M255 102l62 36 0 0 100 58 6 3 0 7 0 116 0 116 0 7 -6 3 -100 58 0 0 -100 58 -6 3 -6 -3 -100 -58 0 0 -100 -58 -6 -3 0 -7 0 -116 0 -116 0 -7 6 -3 100 -58 0 0 62 -36 0 26 -51 29 0 0 -83 48 177 102 177 -102 -83 -48 0 0 -51 -29 0 -26zm-54 126l0 -228 23 0 0 227 47 -27 0 0 27 -15 0 26 -15 9 0 0 -64 37 -6 3 -6 -3 -64 -37 0 0 -16 -9 0 -26 27 16 0 0 48 28zm-178 -3l0 96 0 109 94 54 0 0 83 48 0 -205 -177 -102zm200 307l83 -48 0 0 94 -54 0 -109 0 -96 -177 102 0 205z"/>
 </g>
</svg>
