<?xml version="1.0" encoding="UTF-8"?>
<!DOCTYPE svg PUBLIC "-//W3C//DTD SVG 1.1//EN" "http://www.w3.org/Graphics/SVG/1.1/DTD/svg11.dtd">
<!-- Creator: CorelDRAW X6 -->
<svg xmlns="http://www.w3.org/2000/svg" xml:space="preserve" width="710px" height="288px" version="1.1" style="shape-rendering:geometricPrecision; text-rendering:geometricPrecision; image-rendering:optimizeQuality; fill-rule:evenodd; clip-rule:evenodd"
viewBox="0 0 663 269"
 xmlns:xlink="http://www.w3.org/1999/xlink">
 <defs>
  <style type="text/css">
   <![CDATA[
    .fil0 {fill:#17A157}
   ]]>
  </style>
 </defs>
 <g id="Layer_x0020_1">
  <metadata id="CorelCorpID_0Corel-Layer"/>
  <path class="fil0" d="M623 32l-2 0 -133 0 0 0c-24,-1 -47,4 -69,17 -22,13 -43,33 -62,63l-10 18 -10 17 0 0c-25,41 -54,69 -88,86 -34,17 -73,24 -117,25l0 0 -92 0c-4,7 -11,11 -19,11 -12,0 -22,-10 -22,-22 0,-12 10,-22 22,-22 8,0 15,4 19,11l10 0 81 0 0 0c41,-1 77,-7 108,-23 29,-15 55,-38 76,-73l3 -5 0 0 20 -35 0 0c21,-33 44,-56 69,-70 25,-15 52,-21 79,-20l0 0 135 0c4,-7 11,-11 19,-11 12,0 22,10 22,22 0,12 -10,22 -22,22 -8,0 -15,-4 -19,-11z"/>
 </g>
</svg>
