<?xml version="1.0" encoding="UTF-8"?>
<!DOCTYPE svg PUBLIC "-//W3C//DTD SVG 1.1//EN" "http://www.w3.org/Graphics/SVG/1.1/DTD/svg11.dtd">
<!-- Creator: CorelDRAW X6 -->
<svg xmlns="http://www.w3.org/2000/svg" xml:space="preserve" width="882px" height="371px" version="1.1" style="shape-rendering:geometricPrecision; text-rendering:geometricPrecision; image-rendering:optimizeQuality; fill-rule:evenodd; clip-rule:evenodd"
viewBox="0 0 864 363"
 xmlns:xlink="http://www.w3.org/1999/xlink">
 <defs>
  <style type="text/css">
   <![CDATA[
    .fil0 {fill:black}
   ]]>
  </style>
 </defs>
 <g id="Layer_x0020_1">
  <metadata id="CorelCorpID_0Corel-Layer"/>
  <path class="fil0" d="M122 0l537 0 0 0 1 0c25,3 52,12 78,23 34,15 64,35 83,50l0 0c5,4 12,10 19,16 7,7 15,16 20,26 2,5 4,10 4,15 0,6 -1,12 -4,17l0 0c-3,5 -7,10 -13,13l0 0c-4,2 -9,4 -15,4l0 0 -406 0 0 -1 -23 16c8,1 15,5 21,11 7,7 11,16 11,26l0 42c0,10 -4,20 -11,26l0 0c-7,7 -16,11 -26,11l-106 0c-10,0 -20,-4 -26,-11l0 0c-2,-2 -4,-4 -5,-6l-122 84 -3 2 -3 0 -104 0 -27 0 20 -19 185 -178 -83 0 0 -11 0 -11 106 0 56 -53 32 0 -10 10 -250 241 74 0 285 -196 73 -51 3 -2 3 0 47 0 0 11 0 11 -27 0 -17 0 -24 17 -15 11 375 0 0 0c2,0 4,-1 5,-1l0 0c2,-1 3,-2 4,-4l0 0c1,-2 1,-4 1,-6 0,-2 -1,-4 -2,-6 -4,-7 -10,-14 -16,-20 -6,-6 -13,-11 -17,-15l0 0c-8,-6 -18,-13 -30,-21l-130 0 0 -11 0 -11 91 0c-3,-2 -7,-3 -10,-5 -23,-11 -47,-19 -70,-21l-505 0 -32 0 0 -11 0 -11zm249 200l-94 65c1,1 2,2 3,3l0 0 0 0c3,3 6,4 10,4l106 0c4,0 8,-2 11,-5l0 0c3,-3 5,-7 5,-11l0 -42c0,-4 -2,-8 -5,-11 -3,-3 -7,-5 -11,-5l-24 0 -1 0zm3 -130l-44 0 0 -11 0 -11 44 0 0 2 0 9 0 11zm79 0l-44 0 0 -11 0 -11 44 0 0 2 0 9 0 11zm79 0l-44 0 0 -11 0 -11 44 0 0 2 0 9 0 11zm79 0l-44 0 0 -11 0 -11 44 0 0 2 0 9 0 11z"/>
 </g>
</svg>
