<?xml version="1.0" encoding="UTF-8"?>
<!DOCTYPE svg PUBLIC "-//W3C//DTD SVG 1.1//EN" "http://www.w3.org/Graphics/SVG/1.1/DTD/svg11.dtd">
<!-- Creator: CorelDRAW X6 -->
<svg xmlns="http://www.w3.org/2000/svg" xml:space="preserve" width="888px" height="394px" version="1.1" style="shape-rendering:geometricPrecision; text-rendering:geometricPrecision; image-rendering:optimizeQuality; fill-rule:evenodd; clip-rule:evenodd"
viewBox="0 0 950 421"
 xmlns:xlink="http://www.w3.org/1999/xlink">
 <defs>
  <style type="text/css">
   <![CDATA[
    .fil0 {fill:none}
    .fil1 {fill:black;fill-rule:nonzero}
   ]]>
  </style>
 </defs>
 <g id="Layer_x0020_1">
  <metadata id="CorelCorpID_0Corel-Layer"/>
  <path class="fil0" d="M577 363c0,20 16,35 35,35 20,0 35,-16 35,-35"/>
  <path class="fil0" d="M437 363c0,20 16,35 35,35 20,0 35,-16 35,-35"/>
  <path class="fil0" d="M163 363c0,20 16,35 35,35 20,0 35,-16 35,-35"/>
  <path class="fil0" d="M296 363c0,20 16,35 35,35 20,0 35,-16 35,-35"/>
  <path class="fil0" d="M81 95l632 0c76,8 182,120 221,192 11,21 0,47 -29,49l-823 0"/>
  <path class="fil0" d="M82 147l637 0c22,2 53,28 64,50 3,6 0,14 -8,15l-692 0"/>
  <line class="fil0" x1="0" y1="409" x2="949" y2= "409" />
  <line class="fil0" x1="643" y1="211" x2="643" y2= "145" />
  <line class="fil0" x1="406" y1="206" x2="406" y2= "140" />
  <line class="fil0" x1="220" y1="211" x2="220" y2= "145" />
  <path class="fil0" d="M304 1c1,16 9,22 26,22l80 0c12,1 25,5 25,18"/>
  <path class="fil1" d="M385 35c12,19 25,40 30,48l298 0 0 0 1 0c37,4 79,29 119,64l0 0c47,41 90,94 112,135 4,7 5,14 6,21 0,8 -1,16 -5,23 -4,7 -10,13 -17,17 -6,3 -14,6 -23,6l-1 0 -823 0 0 -24 823 0 0 0c5,0 9,-1 12,-3 3,-2 6,-4 8,-7 2,-3 2,-7 2,-10l0 0c0,-3 -1,-7 -3,-10 -21,-38 -61,-89 -106,-128l0 0c-35,-31 -73,-54 -104,-58l-632 0 0 -24 305 0c-8,-13 -20,-32 -29,-48l-26 0 0 0c-11,0 -20,-3 -26,-8 -7,-6 -11,-14 -12,-26l24 -1c0,4 1,7 3,8 2,2 6,2 11,3l0 0 80 0 0 0c9,0 18,2 25,7 7,5 12,12 12,22l-24 1c0,-2 -1,-3 -2,-3 -3,-2 -7,-3 -12,-3l0 0 -26 0zm205 328c0,6 3,12 7,17 4,4 10,7 17,7 6,0 12,-3 17,-7 4,-4 7,-10 7,-17l24 0c0,13 -5,25 -14,34l-1 1 303 0 0 24 -949 0 0 -24 165 0 -1 -1c-9,-9 -14,-20 -14,-34l24 0c0,6 3,12 7,17 4,4 10,7 17,7 6,0 12,-3 17,-7 4,-4 7,-10 7,-17l24 0c0,13 -5,25 -14,34l-1 1 67 0 -1 -1c-9,-9 -14,-20 -14,-34l24 0c0,6 3,12 7,17 4,4 10,7 17,7 6,0 12,-3 17,-7 4,-4 7,-10 7,-17l24 0c0,13 -5,25 -14,34l-1 1 75 0 -1 -1c-9,-9 -14,-20 -14,-34l24 0c0,6 3,12 7,17 4,4 10,7 17,7 6,0 12,-3 17,-7 4,-4 7,-10 7,-17l24 0c0,13 -5,25 -14,34l-1 1 75 0 -1 -1c-9,-9 -14,-20 -14,-34l24 0zm-508 -228l637 0 0 0 1 0c13,1 28,9 41,19 14,11 26,25 33,37 2,3 2,6 3,10 0,4 -1,8 -3,11l0 0c-2,4 -5,7 -9,9l0 0c-3,1 -6,2 -10,3l-1 0 -692 0 0 -24 126 0 0 -41 -126 0 0 -24zm150 65l162 0 0 -41 -162 0 0 41zm186 0l214 0 0 -41 -214 0 0 41zm238 0l115 0c-5,-9 -14,-19 -24,-26 -10,-7 -20,-13 -28,-14l-63 0 0 41z"/>
 </g>
</svg>
