<?xml version="1.0" encoding="UTF-8"?>
<!DOCTYPE svg PUBLIC "-//W3C//DTD SVG 1.1//EN" "http://www.w3.org/Graphics/SVG/1.1/DTD/svg11.dtd">
<!-- Creator: CorelDRAW X6 -->
<svg xmlns="http://www.w3.org/2000/svg" xml:space="preserve" width="480px" height="231px" version="1.1" style="shape-rendering:geometricPrecision; text-rendering:geometricPrecision; image-rendering:optimizeQuality; fill-rule:evenodd; clip-rule:evenodd"
viewBox="0 0 506 244"
 xmlns:xlink="http://www.w3.org/1999/xlink">
 <defs>
  <style type="text/css">
   <![CDATA[
    .fil0 {fill:black;fill-rule:nonzero}
   ]]>
  </style>
 </defs>
 <g id="Layer_x0020_1">
  <metadata id="CorelCorpID_0Corel-Layer"/>
  <path class="fil0" d="M414 219c6,0 11,-2 15,-6l0 0c4,-4 6,-9 6,-15 0,-6 -2,-11 -6,-15l0 0c-4,-4 -9,-6 -15,-6 -6,0 -11,2 -15,6l0 0c-4,4 -6,9 -6,15 0,6 2,11 6,15 4,4 9,6 15,6zm-292 1c6,0 11,-2 15,-6l0 0c4,-4 6,-9 6,-15 0,-6 -2,-11 -6,-15l0 0c-4,-4 -9,-6 -15,-6 -6,0 -11,2 -15,6 -4,4 -6,9 -6,15 0,6 2,11 6,15l0 0c4,4 9,6 15,6zm32 11l0 0c-8,8 -19,13 -32,13 -12,0 -24,-5 -32,-13l0 0c-2,-2 -4,-4 -6,-7l-85 0 0 -24 77 0 0 -1c0,-12 5,-24 13,-32 8,-8 19,-13 32,-13 12,0 24,5 32,13l0 0c8,8 13,19 13,32l0 1 202 0 0 -2c0,-12 5,-24 13,-32l0 0c8,-8 19,-13 32,-13 12,0 24,5 32,13l0 0 0 0c8,8 13,19 13,32l0 2 47 0 0 24 -55 0c-1,2 -3,4 -5,6l0 0c-8,8 -19,13 -32,13 -12,0 -24,-5 -32,-13 -2,-2 -3,-4 -5,-6l-218 0c-2,3 -4,5 -6,7zm-147 -50l0 -168 0 -12 12 0 253 0 1 0 4 0c47,2 68,4 121,81l75 38c8,4 13,10 16,17l0 0c2,6 3,14 3,23l0 0 0 28 -24 0 0 -28 0 0c0,-6 0,-11 -1,-14l0 0c-1,-2 -2,-4 -4,-5l-77 -40 -3 -1 -2 -2c-48,-70 -65,-71 -104,-73l-4 0 0 0 -242 0 0 156 -24 0zm354 -67l-124 0 0 -24 124 0 0 24z"/>
 </g>
</svg>
