<?xml version="1.0" encoding="UTF-8"?>
<!DOCTYPE svg PUBLIC "-//W3C//DTD SVG 1.1//EN" "http://www.w3.org/Graphics/SVG/1.1/DTD/svg11.dtd">
<!-- Creator: CorelDRAW X6 -->
<svg xmlns="http://www.w3.org/2000/svg" xml:space="preserve" width="497px" height="289px" version="1.1" style="shape-rendering:geometricPrecision; text-rendering:geometricPrecision; image-rendering:optimizeQuality; fill-rule:evenodd; clip-rule:evenodd"
viewBox="0 0 504 293"
 xmlns:xlink="http://www.w3.org/1999/xlink">
 <defs>
  <style type="text/css">
   <![CDATA[
    .fil0 {fill:#17A157}
   ]]>
  </style>
 </defs>
 <g id="Layer_x0020_1">
  <metadata id="CorelCorpID_0Corel-Layer"/>
  <path class="fil0" d="M381 12c34,0 65,14 87,36 22,22 36,53 36,87l0 22c0,34 -14,65 -36,87 -22,22 -53,36 -87,36l-196 0c-4,7 -12,12 -21,12 -13,0 -24,-11 -24,-24 0,-13 11,-24 24,-24 9,0 17,5 21,12l196 0c28,0 53,-11 71,-30 18,-18 30,-43 30,-71l0 -22c0,-28 -11,-53 -29,-71 -18,-18 -43,-30 -71,-30l0 -1 0 -10 0 -11zm-258 268c-34,0 -65,-14 -87,-36 -22,-22 -36,-53 -36,-87l0 -22c0,-34 14,-65 36,-87 22,-22 53,-36 87,-36l196 0c4,-7 12,-12 21,-12 13,0 24,11 24,24 0,13 -11,24 -24,24 -9,0 -17,-5 -21,-12l-196 0c-28,0 -53,11 -71,30 -18,18 -30,43 -30,71l0 22c0,28 11,53 29,71 18,18 43,30 71,30l0 1 0 10 0 11z"/>
 </g>
</svg>
