<?xml version="1.0" encoding="UTF-8"?>
<!DOCTYPE svg PUBLIC "-//W3C//DTD SVG 1.1//EN" "http://www.w3.org/Graphics/SVG/1.1/DTD/svg11.dtd">
<!-- Creator: CorelDRAW X6 -->
<svg xmlns="http://www.w3.org/2000/svg" xml:space="preserve" width="418px" height="559px" version="1.1" style="shape-rendering:geometricPrecision; text-rendering:geometricPrecision; image-rendering:optimizeQuality; fill-rule:evenodd; clip-rule:evenodd"
viewBox="0 0 457 611"
 xmlns:xlink="http://www.w3.org/1999/xlink">
 <defs>
  <style type="text/css">
   <![CDATA[
    .fil0 {fill:black;fill-rule:nonzero}
   ]]>
  </style>
 </defs>
 <g id="Layer_x0020_1">
  <metadata id="CorelCorpID_0Corel-Layer"/>
  <path class="fil0" d="M275 110l67 39 0 0 108 62 6 4 0 7 0 125 0 125 0 7 -6 4 -108 62 0 0 -108 62 -6 4 -6 -4 -108 -62 0 0 -108 -62 -6 -4 0 -7 0 -125 0 -125 0 -7 6 -4 108 -62 0 0 67 -39 0 28 -55 32 0 0 -90 52 192 111 192 -111 -90 -52 0 0 -55 -32 0 -28zm-35 -75l0 246 -25 0 0 -246 -51 29 0 0 -29 17 0 -28 17 -10 0 0 70 -40 6 -4 6 4 70 40 0 0 17 10 0 28 -30 -17 0 0 -52 -30zm-216 208l0 104 0 118 102 59 0 0 90 52 0 -221 -192 -111zm216 332l90 -52 0 0 102 -59 0 -118 0 -104 -192 111 0 221z"/>
 </g>
</svg>
