<?xml version="1.0" encoding="UTF-8"?>
<!DOCTYPE svg PUBLIC "-//W3C//DTD SVG 1.1//EN" "http://www.w3.org/Graphics/SVG/1.1/DTD/svg11.dtd">
<!-- Creator: CorelDRAW X6 -->
<svg xmlns="http://www.w3.org/2000/svg" xml:space="preserve" width="1146px" height="392px" version="1.1" style="shape-rendering:geometricPrecision; text-rendering:geometricPrecision; image-rendering:optimizeQuality; fill-rule:evenodd; clip-rule:evenodd"
viewBox="0 0 1311 449"
 xmlns:xlink="http://www.w3.org/1999/xlink">
 <defs>
  <style type="text/css">
   <![CDATA[
    .fil0 {fill:black;fill-rule:nonzero}
   ]]>
  </style>
 </defs>
 <g id="Layer_x0020_1">
  <metadata id="CorelCorpID_0Corel-Layer"/>
  <path class="fil0" d="M267 423c8,0 14,-3 19,-8 5,-5 8,-12 8,-19 0,-8 -3,-14 -8,-19 -5,-5 -12,-8 -19,-8 -8,0 -14,3 -19,8 -5,5 -8,12 -8,19 0,8 3,14 8,19 5,5 12,8 19,8zm573 -31l0 -207 -94 -118 -175 0 0 266 0 13 -13 0 -133 0c7,3 14,7 19,12l0 0c10,10 16,23 16,38 0,15 -6,28 -16,38l0 0c-10,10 -23,16 -38,16 -15,0 -28,-6 -38,-16l0 0c-10,-10 -16,-23 -16,-38 0,-15 6,-28 16,-38l0 0c5,-5 12,-10 19,-12l-101 0c7,3 14,7 19,12l0 0c10,10 16,23 16,38 0,15 -6,28 -16,38l0 0c-10,10 -23,16 -38,16 -15,0 -28,-6 -38,-16l0 0c-10,-10 -16,-23 -16,-38 0,-15 6,-28 16,-38l0 0c5,-5 12,-10 19,-12l-249 0 0 -26 545 0 0 -266 0 -13 13 0 194 0 6 0 4 5 101 126 3 4 0 4 0 212 9 0 0 26 -93 0 0 -26 59 0zm-129 31c8,0 14,-3 19,-8 5,-5 8,-12 8,-19 0,-8 -3,-14 -8,-19 -5,-5 -12,-8 -19,-8 -8,0 -14,3 -19,8 -5,5 -8,12 -8,19 0,8 3,14 8,19 5,5 12,8 19,8zm38 10c-10,10 -23,16 -38,16 -15,0 -28,-6 -38,-16l0 0c-10,-10 -16,-23 -16,-38 0,-15 6,-28 16,-38l0 0c10,-10 23,-16 38,-16 15,0 28,6 38,16l0 0c10,10 16,23 16,38 0,15 -6,28 -16,38l0 0zm-343 -10c8,0 14,-3 19,-8 5,-5 8,-12 8,-19 0,-8 -3,-14 -8,-19 -5,-5 -12,-8 -19,-8 -8,0 -14,3 -19,8 -5,5 -8,12 -8,19 0,8 3,14 8,19 5,5 12,8 19,8zm806 0c6,0 12,-3 16,-7 4,-4 7,-10 7,-16 0,-6 -3,-12 -7,-16l0 0c-4,-4 -10,-7 -16,-7 -6,0 -12,3 -16,7l0 0c-4,4 -7,10 -7,16 0,6 3,12 7,16 4,4 10,7 16,7zm35 11c-9,9 -21,14 -35,14 -13,0 -26,-5 -35,-14 -5,-5 -8,-10 -11,-17l-271 0 0 -26 269 0c2,-10 7,-20 14,-27l0 0c9,-9 21,-14 35,-14 13,0 26,5 35,14l0 0c7,7 12,16 14,27l52 0 0 26 -54 0c-2,6 -6,12 -11,17zm-343 -259l155 0 1 0 5 0c51,3 74,4 131,88l81 42c8,4 14,11 17,19l0 0c3,7 3,15 3,25l0 0 0 30 -26 0 0 -30 0 0c0,-6 0,-12 -2,-15l0 0c-1,-2 -2,-4 -5,-5l-84 -43 -3 -1 -2 -3c-52,-76 -71,-77 -113,-79l-4 0 0 0 -155 0 0 -26zm-897 -175l492 0 13 0 0 13 0 261 0 13 -13 0 -492 0 0 -26 479 0 0 -235 -479 0 0 -26zm797 234l-192 0 0 -26 192 0 0 26zm350 64l-135 0 0 -26 135 0 0 26zm-581 120l-88 0 0 -26 88 0 0 26z"/>
 </g>
</svg>
